<?xml version="1.0" encoding="UTF-8" standalone="no"?>
<svg
   xmlns:dc="http://purl.org/dc/elements/1.1/"
   xmlns:cc="http://creativecommons.org/ns#"
   xmlns:rdf="http://www.w3.org/1999/02/22-rdf-syntax-ns#"
   xmlns:svg="http://www.w3.org/2000/svg"
   xmlns="http://www.w3.org/2000/svg"
   xmlns:sodipodi="http://sodipodi.sourceforge.net/DTD/sodipodi-0.dtd"
   xmlns:inkscape="http://www.inkscape.org/namespaces/inkscape"
   width="1024"
   height="1024"
   viewBox="0 0 270.93333 270.93333"
   version="1.1"
   id="svg1424"
   inkscape:version="1.0 (4035a4fb49, 2020-05-01)"
   sodipodi:docname="colorise.svg">
  <defs
     id="defs1418" />
  <sodipodi:namedview
     id="base"
     pagecolor="#ffffff"
     bordercolor="#666666"
     borderopacity="1.0"
     inkscape:pageopacity="0.0"
     inkscape:pageshadow="2"
     inkscape:zoom="0.98994949"
     inkscape:cx="512.37379"
     inkscape:cy="503.03789"
     inkscape:document-units="mm"
     inkscape:current-layer="layer1"
     inkscape:document-rotation="0"
     showgrid="false"
     units="px"
     inkscape:window-width="1920"
     inkscape:window-height="1137"
     inkscape:window-x="-8"
     inkscape:window-y="-8"
     inkscape:window-maximized="1" />
  <metadata
     id="metadata1421">
    <rdf:RDF>
      <cc:Work
         rdf:about="">
        <dc:format>image/svg+xml</dc:format>
        <dc:type
           rdf:resource="http://purl.org/dc/dcmitype/StillImage" />
        <dc:title></dc:title>
      </cc:Work>
    </rdf:RDF>
  </metadata>
  <g
     inkscape:label="Layer 1"
     inkscape:groupmode="layer"
     id="layer1">
    <path
       id="path864"
       d="M 136.37777,13.853337 134.62448,258.55365"
       style="fill:none;stroke:#000000;stroke-width:1.5875;stroke-linecap:butt;stroke-linejoin:miter;stroke-opacity:1;stroke-miterlimit:4;stroke-dasharray:none" />
    <path
       id="path868"
       d="M 221.18486,49.698774 48.681004,219.54251"
       style="fill:none;stroke:#000000;stroke-width:1.5875;stroke-linecap:butt;stroke-linejoin:miter;stroke-opacity:1;stroke-miterlimit:4;stroke-dasharray:none" />
    <path
       transform="scale(0.26458333)"
       id="path886"
       d="m 736.2815,507.58734 c -110.39286,-2.18334 -203.84528,-4.1862 -207.67206,-4.4508 l -6.95777,-0.48108 156.02897,-153.57143 c 85.81593,-84.46429 156.53304,-153.76085 157.14913,-153.99236 1.56146,-0.58676 20.94969,20.95147 34.71736,38.56722 44.8466,57.3813 76.52913,128.33208 88.86037,198.99657 3.61423,20.71144 6.41687,48.87998 6.43167,64.64286 l 0.0138,14.64285 -13.92857,-0.19205 c -7.66072,-0.10558 -104.25,-1.97845 -214.64286,-4.16178 z"
       style="fill:#cead00;fill-opacity:1;stroke:#3c3100;stroke-width:8.57143;stroke-linejoin:round;stroke-miterlimit:4;stroke-dasharray:none;stroke-opacity:1" />
    <path
       sodipodi:nodetypes="sssscssscs"
       transform="scale(0.26458333)"
       id="path888"
       d="M 682.3863,665.24599 C 592.6368,580.62972 514.26785,508.46114 514.46383,508.26516 c 0.19598,-0.19597 102.83241,4.29606 221.85023,6.5885 119.0178,2.29244 219.12815,4.18208 222.46744,4.19922 l 6.07143,0.0312 V 529.647 c 0,13.80149 -2.23207,35.9969 -5.7386,57.06365 -13.94549,83.78296 -51.16306,161.41686 -108.83357,227.02113 l -4.71355,5.362 z"
       style="fill:#af9200;fill-opacity:1;stroke:#3c3100;stroke-width:8.57143;stroke-linejoin:round;stroke-miterlimit:4;stroke-dasharray:none;stroke-opacity:1" />
    <path
       sodipodi:nodetypes="ssscsssscs"
       transform="scale(0.26458333)"
       id="path890"
       d="m 512.51651,951.09499 c 0.47365,-7.7846 1.27505,-99.01096 1.78091,-202.72525 0.50586,-103.71428 1.31993,-197.55438 1.80905,-208.53354 L 514.718,508.50675 678.06721,671.72476 c 86.12551,86.05634 161.07143,152.36576 161.07143,152.9953 0,0.62954 -6.5957,7.49398 -14.65711,15.2543 -77.63082,74.73131 -183.81449,120.36248 -289.44168,124.3841 l -23.38451,0.89033 z"
       style="fill:#887200;fill-opacity:1;stroke:#3c3100;stroke-width:8.57143;stroke-linejoin:round;stroke-miterlimit:4;stroke-dasharray:none;stroke-opacity:1" />
    <path
       sodipodi:nodetypes="ssscsscsscss"
       transform="scale(0.26458333)"
       id="path892"
       d="M 474.13864,963.8706 C 471.7815,963.59582 463.74578,962.6874 456.2815,961.85192 364.79593,951.61174 269.14161,906.64903 202.35314,842.4918 L 189.13907,829.79832 333.48,687.65546 C 412.86751,609.47689 484.6403,539.08403 492.97508,531.22689 l 21.74292,-22.72014 -7.51926,186.29157 c -3.94519,97.74317 -1.34014,198.58928 -1.84083,223.92857 l -0.91034,46.07143 -13.01161,-0.21405 c -7.15638,-0.11773 -14.94018,-0.43887 -17.29732,-0.71367 z"
       style="fill:#6f5d00;fill-opacity:1;stroke:#3c3100;stroke-width:8.57143;stroke-linejoin:round;stroke-miterlimit:4;stroke-dasharray:none;stroke-opacity:1" />
    <path
       sodipodi:nodetypes="sscssscs"
       transform="scale(0.26458333)"
       id="path894"
       d="M 174.54311,814.44239 C 110.62155,742.73462 71.633565,655.41744 61.34797,560.93145 c -2.286928,-21.00828 -3.02012,-59.00523 -1.1379,-58.97052 188.83513,3.4826 451.46286,4.02851 451.81776,4.38341 0.2659,0.26589 -43.35473,37.75258 -83.99599,77.72253 -40.64126,39.96994 -112.22463,110.4864 -159.07416,156.70325 l -85.18095,84.03062 z"
       style="fill:#5e4f00;fill-opacity:1;stroke:#3c3100;stroke-width:8.57143;stroke-linejoin:round;stroke-miterlimit:4;stroke-dasharray:none;stroke-opacity:1" />
    <path
       transform="scale(0.26458333)"
       id="path896"
       d="M 391.99578,501.12222 C 342.10293,500.1109 246.98067,498.24133 180.61298,496.9676 114.24529,495.69389 59.63836,494.34566 59.264237,493.97153 58.134146,492.84144 62.002659,453.77846 64.982845,436.22689 79.005571,353.64116 116.87686,274.71962 173.0143,211.09569 l 7.4471,-8.44023 7.5529,7.28788 c 5.81542,5.61135 300.2265,282.75862 309.64476,291.48765 1.77848,1.64834 0.81552,1.90814 -6.42858,1.73437 -4.68622,-0.11243 -49.34184,-1.03182 -99.2347,-2.04314 z"
       style="fill:#5e4f00;fill-opacity:1;stroke:#3c3100;stroke-width:8.57143;stroke-linejoin:round;stroke-miterlimit:4;stroke-dasharray:none;stroke-opacity:1" />
    <path
       sodipodi:nodetypes="sscssscsscs"
       transform="scale(0.26458333)"
       id="path898"
       d="m 517.07552,334.09277 c 3.28064,-89.51263 1.28743,-188.18421 1.78893,-219.13952 l 0.91183,-56.282382 18.14422,0.86789 c 25.99177,1.243261 57.02638,6.030049 85.0208,13.113634 73.99491,18.723354 142.62434,56.088108 198.43465,108.036188 l 8.33248,7.75585 -133.38356,131.3156 C 622.9639,391.98361 552.42415,461.39736 539.56986,474.01277 l -28.75662,30.94711 z"
       style="fill:#ffda2a;fill-opacity:1;stroke:#3c3100;stroke-width:8.57143;stroke-linejoin:round;stroke-miterlimit:4;stroke-dasharray:none;stroke-opacity:1" />
    <path
       sodipodi:nodetypes="sscssscssscs"
       transform="scale(0.26458333)"
       id="path900"
       d="M 355.79844,357.33154 C 272.86368,278.43829 200.2245,210.66353 195.15793,205.89744 l -9.21194,-8.66561 14.56603,-14.05622 C 260.22684,125.5508 338.36903,84.777045 421.59698,67.815844 c 24.67197,-5.027951 57.37047,-8.723072 77.19136,-8.723072 h 13.78544 l -0.8752,23.214285 c -0.48135,12.767858 -1.28843,106.922863 -1.7935,209.233343 -0.50507,102.31049 -2.18584,199.92235 0.17589,205.67385 l 4.63703,11.2925 z"
       style="fill:#ffe359;fill-opacity:1;stroke:#3c3100;stroke-width:8.57143;stroke-linejoin:round;stroke-miterlimit:4;stroke-dasharray:none;stroke-opacity:1" />
  </g>
</svg>
